<svg width="1121" height="332" viewBox="0 0 1121 332" fill="none" xmlns="http://www.w3.org/2000/svg">
<rect width="1121" height="332" rx="20" fill="url(#paint0_linear_139_218)"/>
<path d="M87.5795 154.477C85.1705 154.477 83.0227 154.034 81.1364 153.148C79.2614 152.261 77.7727 151.04 76.6705 149.483C75.5682 147.926 74.9943 146.142 74.9489 144.131H82.108C82.1875 145.483 82.7557 146.58 83.8125 147.42C84.8693 148.261 86.125 148.682 87.5795 148.682C88.7386 148.682 89.7614 148.426 90.6477 147.915C91.5455 147.392 92.2443 146.67 92.7443 145.75C93.2557 144.818 93.5114 143.75 93.5114 142.545C93.5114 141.318 93.25 140.239 92.7273 139.307C92.2159 138.375 91.5057 137.648 90.5966 137.125C89.6875 136.602 88.6477 136.335 87.4773 136.324C86.4545 136.324 85.4602 136.534 84.4943 136.955C83.5398 137.375 82.7955 137.949 82.2614 138.676L75.6989 137.5L77.3523 119.091H98.6932V125.125H83.4375L82.5341 133.869H82.7386C83.3523 133.006 84.2784 132.29 85.517 131.722C86.7557 131.153 88.142 130.869 89.6761 130.869C91.7784 130.869 93.6534 131.364 95.3011 132.352C96.9489 133.341 98.25 134.699 99.2045 136.426C100.159 138.142 100.631 140.119 100.619 142.358C100.631 144.71 100.085 146.801 98.983 148.631C97.892 150.449 96.3636 151.881 94.3977 152.926C92.4432 153.96 90.1705 154.477 87.5795 154.477ZM119.455 154.767C116.523 154.756 114 154.034 111.886 152.602C109.784 151.17 108.165 149.097 107.028 146.381C105.903 143.665 105.347 140.398 105.358 136.58C105.358 132.773 105.92 129.528 107.045 126.847C108.182 124.165 109.801 122.125 111.903 120.727C114.017 119.318 116.534 118.614 119.455 118.614C122.375 118.614 124.886 119.318 126.989 120.727C129.102 122.136 130.727 124.182 131.864 126.864C133 129.534 133.563 132.773 133.551 136.58C133.551 140.409 132.983 143.682 131.847 146.398C130.722 149.114 129.108 151.187 127.006 152.619C124.903 154.051 122.386 154.767 119.455 154.767ZM119.455 148.648C121.455 148.648 123.051 147.642 124.244 145.631C125.438 143.619 126.028 140.602 126.017 136.58C126.017 133.932 125.744 131.727 125.199 129.966C124.665 128.205 123.903 126.881 122.915 125.994C121.938 125.108 120.784 124.665 119.455 124.665C117.466 124.665 115.875 125.659 114.682 127.648C113.489 129.636 112.886 132.614 112.875 136.58C112.875 139.261 113.142 141.5 113.676 143.295C114.222 145.08 114.989 146.42 115.977 147.318C116.966 148.205 118.125 148.648 119.455 148.648ZM149.246 148.682V124.545H155.348V148.682H149.246ZM140.229 139.665V133.562H164.365V139.665H140.229ZM189.06 119.091L197.497 145.614H197.821L206.276 119.091H214.457L202.423 154H192.912L180.861 119.091H189.06ZM227.501 154.511C224.808 154.511 222.49 153.966 220.547 152.875C218.615 151.773 217.126 150.216 216.081 148.205C215.036 146.182 214.513 143.79 214.513 141.028C214.513 138.335 215.036 135.972 216.081 133.938C217.126 131.903 218.598 130.318 220.496 129.182C222.405 128.045 224.643 127.477 227.212 127.477C228.939 127.477 230.547 127.756 232.036 128.312C233.536 128.858 234.842 129.682 235.956 130.784C237.081 131.886 237.956 133.273 238.581 134.943C239.206 136.602 239.518 138.545 239.518 140.773V142.767H217.411V138.267H232.683C232.683 137.222 232.456 136.295 232.001 135.489C231.547 134.682 230.916 134.051 230.109 133.597C229.314 133.131 228.388 132.898 227.331 132.898C226.229 132.898 225.251 133.153 224.399 133.665C223.558 134.165 222.899 134.841 222.422 135.693C221.945 136.534 221.7 137.472 221.689 138.506V142.784C221.689 144.08 221.928 145.199 222.405 146.142C222.893 147.085 223.581 147.812 224.467 148.324C225.354 148.835 226.405 149.091 227.621 149.091C228.428 149.091 229.166 148.977 229.837 148.75C230.507 148.523 231.081 148.182 231.558 147.727C232.036 147.273 232.399 146.716 232.649 146.057L239.365 146.5C239.024 148.114 238.325 149.523 237.268 150.727C236.223 151.92 234.871 152.852 233.212 153.523C231.564 154.182 229.661 154.511 227.501 154.511ZM244.257 154V127.818H251.297V132.386H251.57C252.047 130.761 252.848 129.534 253.973 128.705C255.098 127.864 256.393 127.443 257.859 127.443C258.223 127.443 258.615 127.466 259.036 127.511C259.456 127.557 259.825 127.619 260.143 127.699V134.142C259.803 134.04 259.331 133.949 258.729 133.869C258.126 133.79 257.575 133.75 257.075 133.75C256.007 133.75 255.053 133.983 254.212 134.449C253.382 134.903 252.723 135.54 252.234 136.358C251.757 137.176 251.518 138.119 251.518 139.188V154H244.257ZM263.898 154V127.818H271.159V154H263.898ZM267.545 124.443C266.466 124.443 265.54 124.085 264.767 123.369C264.006 122.642 263.625 121.773 263.625 120.761C263.625 119.761 264.006 118.903 264.767 118.188C265.54 117.46 266.466 117.097 267.545 117.097C268.625 117.097 269.545 117.46 270.307 118.188C271.08 118.903 271.466 119.761 271.466 120.761C271.466 121.773 271.08 122.642 270.307 123.369C269.545 124.085 268.625 124.443 267.545 124.443ZM291.055 127.818V133.273H274.896V127.818H291.055ZM278.595 154V125.926C278.595 124.028 278.964 122.455 279.703 121.205C280.453 119.955 281.476 119.017 282.771 118.392C284.067 117.767 285.538 117.455 287.186 117.455C288.3 117.455 289.317 117.54 290.237 117.71C291.169 117.881 291.862 118.034 292.317 118.17L291.021 123.625C290.737 123.534 290.385 123.449 289.964 123.369C289.555 123.29 289.135 123.25 288.703 123.25C287.635 123.25 286.891 123.5 286.47 124C286.05 124.489 285.839 125.176 285.839 126.062V154H278.595ZM295.491 154V127.818H302.753V154H295.491ZM299.139 124.443C298.06 124.443 297.134 124.085 296.361 123.369C295.599 122.642 295.219 121.773 295.219 120.761C295.219 119.761 295.599 118.903 296.361 118.188C297.134 117.46 298.06 117.097 299.139 117.097C300.219 117.097 301.139 117.46 301.901 118.188C302.673 118.903 303.06 119.761 303.06 120.761C303.06 121.773 302.673 122.642 301.901 123.369C301.139 124.085 300.219 124.443 299.139 124.443ZM320.501 154.511C317.808 154.511 315.49 153.966 313.547 152.875C311.615 151.773 310.126 150.216 309.081 148.205C308.036 146.182 307.513 143.79 307.513 141.028C307.513 138.335 308.036 135.972 309.081 133.938C310.126 131.903 311.598 130.318 313.496 129.182C315.405 128.045 317.643 127.477 320.212 127.477C321.939 127.477 323.547 127.756 325.036 128.312C326.536 128.858 327.842 129.682 328.956 130.784C330.081 131.886 330.956 133.273 331.581 134.943C332.206 136.602 332.518 138.545 332.518 140.773V142.767H310.411V138.267H325.683C325.683 137.222 325.456 136.295 325.001 135.489C324.547 134.682 323.916 134.051 323.109 133.597C322.314 133.131 321.388 132.898 320.331 132.898C319.229 132.898 318.251 133.153 317.399 133.665C316.558 134.165 315.899 134.841 315.422 135.693C314.945 136.534 314.7 137.472 314.689 138.506V142.784C314.689 144.08 314.928 145.199 315.405 146.142C315.893 147.085 316.581 147.812 317.467 148.324C318.354 148.835 319.405 149.091 320.621 149.091C321.428 149.091 322.166 148.977 322.837 148.75C323.507 148.523 324.081 148.182 324.558 147.727C325.036 147.273 325.399 146.716 325.649 146.057L332.365 146.5C332.024 148.114 331.325 149.523 330.268 150.727C329.223 151.92 327.871 152.852 326.212 153.523C324.564 154.182 322.661 154.511 320.501 154.511ZM346.905 154.426C344.916 154.426 343.115 153.915 341.501 152.892C339.899 151.858 338.626 150.341 337.683 148.341C336.751 146.33 336.286 143.864 336.286 140.943C336.286 137.943 336.768 135.449 337.734 133.46C338.7 131.46 339.984 129.966 341.587 128.977C343.2 127.977 344.967 127.477 346.888 127.477C348.354 127.477 349.575 127.727 350.553 128.227C351.541 128.716 352.337 129.33 352.939 130.068C353.553 130.795 354.018 131.511 354.337 132.216H354.558V119.091H361.803V154H354.643V149.807H354.337C353.996 150.534 353.513 151.256 352.888 151.972C352.274 152.676 351.473 153.261 350.484 153.727C349.507 154.193 348.314 154.426 346.905 154.426ZM349.206 148.648C350.376 148.648 351.365 148.33 352.172 147.693C352.99 147.045 353.615 146.142 354.047 144.983C354.49 143.824 354.712 142.466 354.712 140.909C354.712 139.352 354.496 138 354.064 136.852C353.632 135.705 353.007 134.818 352.189 134.193C351.371 133.568 350.376 133.256 349.206 133.256C348.013 133.256 347.007 133.58 346.189 134.227C345.371 134.875 344.751 135.773 344.331 136.92C343.911 138.068 343.7 139.398 343.7 140.909C343.7 142.432 343.911 143.778 344.331 144.949C344.763 146.108 345.382 147.017 346.189 147.676C347.007 148.324 348.013 148.648 349.206 148.648ZM93.9716 187.131C93.8352 185.756 93.25 184.687 92.2159 183.926C91.1818 183.165 89.7784 182.784 88.0057 182.784C86.8011 182.784 85.7841 182.955 84.9545 183.295C84.125 183.625 83.4886 184.085 83.0455 184.676C82.6136 185.267 82.3977 185.938 82.3977 186.688C82.375 187.312 82.5057 187.858 82.7898 188.324C83.0852 188.79 83.4886 189.193 84 189.534C84.5114 189.864 85.1023 190.153 85.7727 190.403C86.4432 190.642 87.1591 190.847 87.9205 191.017L91.0568 191.767C92.5795 192.108 93.9773 192.562 95.25 193.131C96.5227 193.699 97.625 194.398 98.5568 195.227C99.4886 196.057 100.21 197.034 100.722 198.159C101.244 199.284 101.511 200.574 101.523 202.028C101.511 204.165 100.966 206.017 99.8864 207.585C98.8182 209.142 97.2727 210.352 95.25 211.216C93.2386 212.068 90.8125 212.494 87.9716 212.494C85.1534 212.494 82.6989 212.062 80.608 211.199C78.5284 210.335 76.9034 209.057 75.733 207.364C74.5739 205.659 73.9659 203.551 73.9091 201.04H81.0511C81.1307 202.21 81.4659 203.187 82.0568 203.972C82.6591 204.744 83.4602 205.33 84.4602 205.727C85.4716 206.114 86.6136 206.307 87.8864 206.307C89.1364 206.307 90.2216 206.125 91.142 205.761C92.0739 205.398 92.7955 204.892 93.3068 204.244C93.8182 203.597 94.0739 202.852 94.0739 202.011C94.0739 201.227 93.8409 200.568 93.375 200.034C92.9205 199.5 92.25 199.045 91.3636 198.67C90.4886 198.295 89.4148 197.955 88.142 197.648L84.3409 196.693C81.3977 195.977 79.0739 194.858 77.3693 193.335C75.6648 191.812 74.8182 189.761 74.8295 187.182C74.8182 185.068 75.3807 183.222 76.517 181.642C77.6648 180.062 79.2386 178.83 81.2386 177.943C83.2386 177.057 85.5114 176.614 88.0568 176.614C90.6477 176.614 92.9091 177.057 94.8409 177.943C96.7841 178.83 98.2955 180.062 99.375 181.642C100.455 183.222 101.011 185.051 101.045 187.131H93.9716ZM118.18 212.511C115.499 212.511 113.192 211.943 111.26 210.807C109.339 209.659 107.862 208.068 106.828 206.034C105.805 204 105.294 201.659 105.294 199.011C105.294 196.33 105.811 193.977 106.845 191.955C107.891 189.92 109.374 188.335 111.294 187.199C113.214 186.051 115.499 185.477 118.146 185.477C120.43 185.477 122.43 185.892 124.146 186.722C125.862 187.551 127.22 188.716 128.22 190.216C129.22 191.716 129.771 193.477 129.874 195.5H123.021C122.828 194.193 122.317 193.142 121.487 192.347C120.669 191.54 119.595 191.136 118.266 191.136C117.141 191.136 116.158 191.443 115.317 192.057C114.487 192.659 113.839 193.54 113.374 194.699C112.908 195.858 112.675 197.261 112.675 198.909C112.675 200.58 112.902 202 113.357 203.17C113.822 204.341 114.476 205.233 115.317 205.847C116.158 206.46 117.141 206.767 118.266 206.767C119.095 206.767 119.839 206.597 120.499 206.256C121.169 205.915 121.72 205.42 122.152 204.773C122.595 204.114 122.885 203.324 123.021 202.403H129.874C129.76 204.403 129.214 206.165 128.237 207.688C127.271 209.199 125.936 210.381 124.232 211.233C122.527 212.085 120.51 212.511 118.18 212.511ZM141.784 196.864V212H134.523V177.091H141.58V190.438H141.886C142.477 188.892 143.432 187.682 144.75 186.807C146.068 185.92 147.722 185.477 149.71 185.477C151.528 185.477 153.114 185.875 154.466 186.67C155.83 187.455 156.886 188.585 157.636 190.062C158.398 191.528 158.773 193.284 158.761 195.33V212H151.5V196.625C151.511 195.011 151.102 193.756 150.273 192.858C149.455 191.96 148.307 191.511 146.83 191.511C145.841 191.511 144.966 191.722 144.205 192.142C143.455 192.562 142.864 193.176 142.432 193.983C142.011 194.778 141.795 195.739 141.784 196.864ZM176.305 212.511C173.658 212.511 171.368 211.949 169.436 210.824C167.516 209.687 166.033 208.108 164.987 206.085C163.942 204.051 163.419 201.693 163.419 199.011C163.419 196.307 163.942 193.943 164.987 191.92C166.033 189.886 167.516 188.307 169.436 187.182C171.368 186.045 173.658 185.477 176.305 185.477C178.953 185.477 181.237 186.045 183.158 187.182C185.089 188.307 186.578 189.886 187.624 191.92C188.669 193.943 189.192 196.307 189.192 199.011C189.192 201.693 188.669 204.051 187.624 206.085C186.578 208.108 185.089 209.687 183.158 210.824C181.237 211.949 178.953 212.511 176.305 212.511ZM176.339 206.886C177.544 206.886 178.55 206.545 179.357 205.864C180.163 205.17 180.771 204.227 181.18 203.034C181.601 201.841 181.811 200.483 181.811 198.96C181.811 197.438 181.601 196.08 181.18 194.886C180.771 193.693 180.163 192.75 179.357 192.057C178.55 191.364 177.544 191.017 176.339 191.017C175.124 191.017 174.101 191.364 173.271 192.057C172.453 192.75 171.834 193.693 171.413 194.886C171.004 196.08 170.8 197.438 170.8 198.96C170.8 200.483 171.004 201.841 171.413 203.034C171.834 204.227 172.453 205.17 173.271 205.864C174.101 206.545 175.124 206.886 176.339 206.886ZM201.175 177.091V212H193.913V177.091H201.175ZM214.457 212.494C212.787 212.494 211.298 212.205 209.991 211.625C208.685 211.034 207.651 210.165 206.889 209.017C206.139 207.858 205.764 206.415 205.764 204.688C205.764 203.233 206.031 202.011 206.565 201.023C207.099 200.034 207.827 199.239 208.747 198.636C209.668 198.034 210.713 197.58 211.884 197.273C213.065 196.966 214.304 196.75 215.599 196.625C217.122 196.466 218.349 196.318 219.281 196.182C220.213 196.034 220.889 195.818 221.31 195.534C221.73 195.25 221.94 194.83 221.94 194.273V194.17C221.94 193.091 221.599 192.256 220.918 191.665C220.247 191.074 219.293 190.778 218.054 190.778C216.747 190.778 215.707 191.068 214.935 191.648C214.162 192.216 213.651 192.932 213.401 193.795L206.685 193.25C207.026 191.659 207.696 190.284 208.696 189.125C209.696 187.955 210.986 187.057 212.565 186.432C214.156 185.795 215.997 185.477 218.088 185.477C219.543 185.477 220.935 185.648 222.264 185.989C223.605 186.33 224.793 186.858 225.827 187.574C226.872 188.29 227.696 189.21 228.298 190.335C228.901 191.449 229.202 192.784 229.202 194.341V212H222.315V208.369H222.111C221.69 209.188 221.128 209.909 220.423 210.534C219.719 211.148 218.872 211.631 217.884 211.983C216.895 212.324 215.753 212.494 214.457 212.494ZM216.537 207.483C217.605 207.483 218.548 207.273 219.366 206.852C220.185 206.42 220.827 205.841 221.293 205.114C221.759 204.386 221.991 203.562 221.991 202.642V199.864C221.764 200.011 221.452 200.148 221.054 200.273C220.668 200.386 220.23 200.494 219.741 200.597C219.253 200.687 218.764 200.773 218.276 200.852C217.787 200.92 217.344 200.983 216.946 201.04C216.094 201.165 215.349 201.364 214.713 201.636C214.077 201.909 213.582 202.278 213.23 202.744C212.878 203.199 212.702 203.767 212.702 204.449C212.702 205.438 213.06 206.193 213.776 206.716C214.503 207.227 215.423 207.483 216.537 207.483ZM234.835 212V185.818H241.875V190.386H242.148C242.625 188.761 243.426 187.534 244.551 186.705C245.676 185.864 246.972 185.443 248.438 185.443C248.801 185.443 249.193 185.466 249.614 185.511C250.034 185.557 250.403 185.619 250.722 185.699V192.142C250.381 192.04 249.909 191.949 249.307 191.869C248.705 191.79 248.153 191.75 247.653 191.75C246.585 191.75 245.631 191.983 244.79 192.449C243.96 192.903 243.301 193.54 242.812 194.358C242.335 195.176 242.097 196.119 242.097 197.188V212H234.835ZM276.26 193.284L269.612 193.693C269.499 193.125 269.254 192.614 268.879 192.159C268.504 191.693 268.01 191.324 267.396 191.051C266.794 190.767 266.072 190.625 265.232 190.625C264.107 190.625 263.158 190.864 262.385 191.341C261.612 191.807 261.226 192.432 261.226 193.216C261.226 193.841 261.476 194.369 261.976 194.801C262.476 195.233 263.334 195.58 264.55 195.841L269.288 196.795C271.834 197.318 273.732 198.159 274.982 199.318C276.232 200.477 276.857 202 276.857 203.886C276.857 205.602 276.351 207.108 275.339 208.403C274.339 209.699 272.964 210.71 271.214 211.438C269.476 212.153 267.47 212.511 265.197 212.511C261.732 212.511 258.97 211.79 256.913 210.347C254.868 208.892 253.669 206.915 253.317 204.415L260.459 204.04C260.675 205.097 261.197 205.903 262.027 206.46C262.857 207.006 263.919 207.278 265.214 207.278C266.487 207.278 267.51 207.034 268.283 206.545C269.067 206.045 269.464 205.403 269.476 204.619C269.464 203.96 269.186 203.42 268.641 203C268.095 202.568 267.254 202.239 266.118 202.011L261.584 201.108C259.027 200.597 257.124 199.71 255.874 198.449C254.635 197.187 254.016 195.58 254.016 193.625C254.016 191.943 254.47 190.494 255.379 189.278C256.3 188.062 257.589 187.125 259.249 186.466C260.919 185.807 262.874 185.477 265.112 185.477C268.419 185.477 271.021 186.176 272.919 187.574C274.828 188.972 275.942 190.875 276.26 193.284ZM288.69 196.864V212H281.429V177.091H288.486V190.438H288.793C289.384 188.892 290.338 187.682 291.656 186.807C292.974 185.92 294.628 185.477 296.616 185.477C298.435 185.477 300.02 185.875 301.372 186.67C302.736 187.455 303.793 188.585 304.543 190.062C305.304 191.528 305.679 193.284 305.668 195.33V212H298.406V196.625C298.418 195.011 298.009 193.756 297.179 192.858C296.361 191.96 295.213 191.511 293.736 191.511C292.747 191.511 291.872 191.722 291.111 192.142C290.361 192.562 289.77 193.176 289.338 193.983C288.918 194.778 288.702 195.739 288.69 196.864ZM311.382 212V185.818H318.643V212H311.382ZM315.03 182.443C313.95 182.443 313.024 182.085 312.251 181.369C311.49 180.642 311.109 179.773 311.109 178.761C311.109 177.761 311.49 176.903 312.251 176.188C313.024 175.46 313.95 175.097 315.03 175.097C316.109 175.097 317.03 175.46 317.791 176.188C318.564 176.903 318.95 177.761 318.95 178.761C318.95 179.773 318.564 180.642 317.791 181.369C317.03 182.085 316.109 182.443 315.03 182.443ZM324.46 221.818V185.818H331.619V190.216H331.943C332.261 189.511 332.722 188.795 333.324 188.068C333.938 187.33 334.733 186.716 335.71 186.227C336.699 185.727 337.926 185.477 339.392 185.477C341.301 185.477 343.063 185.977 344.676 186.977C346.29 187.966 347.58 189.46 348.545 191.46C349.511 193.449 349.994 195.943 349.994 198.943C349.994 201.864 349.523 204.33 348.58 206.341C347.648 208.341 346.375 209.858 344.761 210.892C343.159 211.915 341.364 212.426 339.375 212.426C337.966 212.426 336.767 212.193 335.778 211.727C334.801 211.261 334 210.676 333.375 209.972C332.75 209.256 332.273 208.534 331.943 207.807H331.722V221.818H324.46ZM331.568 198.909C331.568 200.466 331.784 201.824 332.216 202.983C332.648 204.142 333.273 205.045 334.091 205.693C334.909 206.33 335.903 206.648 337.074 206.648C338.256 206.648 339.256 206.324 340.074 205.676C340.892 205.017 341.511 204.108 341.932 202.949C342.364 201.778 342.58 200.432 342.58 198.909C342.58 197.398 342.369 196.068 341.949 194.92C341.528 193.773 340.909 192.875 340.091 192.227C339.273 191.58 338.267 191.256 337.074 191.256C335.892 191.256 334.892 191.568 334.074 192.193C333.267 192.818 332.648 193.705 332.216 194.852C331.784 196 331.568 197.352 331.568 198.909ZM376.619 193.284L369.972 193.693C369.858 193.125 369.614 192.614 369.239 192.159C368.864 191.693 368.369 191.324 367.756 191.051C367.153 190.767 366.432 190.625 365.591 190.625C364.466 190.625 363.517 190.864 362.744 191.341C361.972 191.807 361.585 192.432 361.585 193.216C361.585 193.841 361.835 194.369 362.335 194.801C362.835 195.233 363.693 195.58 364.909 195.841L369.648 196.795C372.193 197.318 374.091 198.159 375.341 199.318C376.591 200.477 377.216 202 377.216 203.886C377.216 205.602 376.71 207.108 375.699 208.403C374.699 209.699 373.324 210.71 371.574 211.438C369.835 212.153 367.83 212.511 365.557 212.511C362.091 212.511 359.33 211.79 357.273 210.347C355.227 208.892 354.028 206.915 353.676 204.415L360.818 204.04C361.034 205.097 361.557 205.903 362.386 206.46C363.216 207.006 364.278 207.278 365.574 207.278C366.847 207.278 367.869 207.034 368.642 206.545C369.426 206.045 369.824 205.403 369.835 204.619C369.824 203.96 369.545 203.42 369 203C368.455 202.568 367.614 202.239 366.477 202.011L361.943 201.108C359.386 200.597 357.483 199.71 356.233 198.449C354.994 197.187 354.375 195.58 354.375 193.625C354.375 191.943 354.83 190.494 355.739 189.278C356.659 188.062 357.949 187.125 359.608 186.466C361.278 185.807 363.233 185.477 365.472 185.477C368.778 185.477 371.381 186.176 373.278 187.574C375.188 188.972 376.301 190.875 376.619 193.284Z" fill="white"/>
<path fill-rule="evenodd" clip-rule="evenodd" d="M496.035 147.35C501.97 151.625 506 158.25 506 166C506 173.75 501.97 180.38 496.035 184.65C497.235 191.86 495.365 199.44 489.9 204.9C484.425 210.375 476.85 212.195 469.67 211.025C465.415 216.98 458.73 221 451 221C443.25 221 436.61 216.965 432.345 211.02C425.155 212.195 417.575 210.38 412.095 204.9C406.62 199.425 404.8 191.845 406.01 184.65C400.08 180.385 396 173.755 396 166C396 158.245 400.08 151.61 406.01 147.35C404.8 140.155 406.62 132.575 412.1 127.1C417.565 121.63 425.15 119.765 432.385 120.965C436.625 115.02 443.265 111 451 111C458.725 111 465.4 115.015 469.66 120.965C476.87 119.765 484.44 121.64 489.9 127.1C495.36 132.56 497.24 140.14 496.035 147.35ZM473.905 146.93C474.44 147.311 474.894 147.794 475.242 148.351C475.589 148.908 475.824 149.528 475.932 150.176C476.04 150.824 476.02 151.487 475.872 152.126C475.724 152.766 475.452 153.371 475.07 153.905L450.07 188.905C449.648 189.496 449.102 189.988 448.471 190.347C447.839 190.706 447.137 190.923 446.414 190.983C445.69 191.043 444.962 190.944 444.28 190.694C443.598 190.444 442.979 190.049 442.465 189.535L427.465 174.535C426.554 173.592 426.05 172.329 426.062 171.018C426.073 169.707 426.599 168.453 427.526 167.526C428.453 166.599 429.707 166.073 431.018 166.062C432.329 166.05 433.592 166.554 434.535 167.465L445.36 178.29L466.93 148.09C467.701 147.011 468.869 146.283 470.177 146.066C471.485 145.848 472.826 146.159 473.905 146.93Z" fill="white"/>
<path d="M598.114 128.545C598.114 132.352 597.392 135.591 595.949 138.261C594.517 140.932 592.563 142.972 590.085 144.381C587.619 145.778 584.847 146.477 581.767 146.477C578.665 146.477 575.881 145.773 573.415 144.364C570.949 142.955 569 140.915 567.568 138.244C566.136 135.574 565.42 132.341 565.42 128.545C565.42 124.739 566.136 121.5 567.568 118.83C569 116.159 570.949 114.125 573.415 112.727C575.881 111.318 578.665 110.614 581.767 110.614C584.847 110.614 587.619 111.318 590.085 112.727C592.563 114.125 594.517 116.159 595.949 118.83C597.392 121.5 598.114 124.739 598.114 128.545ZM590.631 128.545C590.631 126.08 590.261 124 589.523 122.307C588.795 120.614 587.767 119.33 586.438 118.455C585.108 117.58 583.551 117.142 581.767 117.142C579.983 117.142 578.426 117.58 577.097 118.455C575.767 119.33 574.733 120.614 573.994 122.307C573.267 124 572.903 126.08 572.903 128.545C572.903 131.011 573.267 133.091 573.994 134.784C574.733 136.477 575.767 137.761 577.097 138.636C578.426 139.511 579.983 139.949 581.767 139.949C583.551 139.949 585.108 139.511 586.438 138.636C587.767 137.761 588.795 136.477 589.523 134.784C590.261 133.091 590.631 131.011 590.631 128.545ZM603.445 155.818V119.818H610.604V124.216H610.928C611.246 123.511 611.706 122.795 612.308 122.068C612.922 121.33 613.717 120.716 614.695 120.227C615.683 119.727 616.911 119.477 618.376 119.477C620.286 119.477 622.047 119.977 623.661 120.977C625.274 121.966 626.564 123.46 627.53 125.46C628.496 127.449 628.979 129.943 628.979 132.943C628.979 135.864 628.507 138.33 627.564 140.341C626.632 142.341 625.359 143.858 623.746 144.892C622.143 145.915 620.348 146.426 618.359 146.426C616.95 146.426 615.751 146.193 614.763 145.727C613.786 145.261 612.984 144.676 612.359 143.972C611.734 143.256 611.257 142.534 610.928 141.807H610.706V155.818H603.445ZM610.553 132.909C610.553 134.466 610.768 135.824 611.2 136.983C611.632 138.142 612.257 139.045 613.075 139.693C613.893 140.33 614.888 140.648 616.058 140.648C617.24 140.648 618.24 140.324 619.058 139.676C619.876 139.017 620.496 138.108 620.916 136.949C621.348 135.778 621.564 134.432 621.564 132.909C621.564 131.398 621.354 130.068 620.933 128.92C620.513 127.773 619.893 126.875 619.075 126.227C618.257 125.58 617.251 125.256 616.058 125.256C614.876 125.256 613.876 125.568 613.058 126.193C612.251 126.818 611.632 127.705 611.2 128.852C610.768 130 610.553 131.352 610.553 132.909ZM633.82 155.818V119.818H640.979V124.216H641.303C641.621 123.511 642.081 122.795 642.683 122.068C643.297 121.33 644.092 120.716 645.07 120.227C646.058 119.727 647.286 119.477 648.751 119.477C650.661 119.477 652.422 119.977 654.036 120.977C655.649 121.966 656.939 123.46 657.905 125.46C658.871 127.449 659.354 129.943 659.354 132.943C659.354 135.864 658.882 138.33 657.939 140.341C657.007 142.341 655.734 143.858 654.121 144.892C652.518 145.915 650.723 146.426 648.734 146.426C647.325 146.426 646.126 146.193 645.138 145.727C644.161 145.261 643.359 144.676 642.734 143.972C642.109 143.256 641.632 142.534 641.303 141.807H641.081V155.818H633.82ZM640.928 132.909C640.928 134.466 641.143 135.824 641.575 136.983C642.007 138.142 642.632 139.045 643.45 139.693C644.268 140.33 645.263 140.648 646.433 140.648C647.615 140.648 648.615 140.324 649.433 139.676C650.251 139.017 650.871 138.108 651.291 136.949C651.723 135.778 651.939 134.432 651.939 132.909C651.939 131.398 651.729 130.068 651.308 128.92C650.888 127.773 650.268 126.875 649.45 126.227C648.632 125.58 647.626 125.256 646.433 125.256C645.251 125.256 644.251 125.568 643.433 126.193C642.626 126.818 642.007 127.705 641.575 128.852C641.143 130 640.928 131.352 640.928 132.909ZM676.024 146.511C673.376 146.511 671.087 145.949 669.155 144.824C667.234 143.687 665.751 142.108 664.706 140.085C663.661 138.051 663.138 135.693 663.138 133.011C663.138 130.307 663.661 127.943 664.706 125.92C665.751 123.886 667.234 122.307 669.155 121.182C671.087 120.045 673.376 119.477 676.024 119.477C678.672 119.477 680.956 120.045 682.876 121.182C684.808 122.307 686.297 123.886 687.342 125.92C688.388 127.943 688.911 130.307 688.911 133.011C688.911 135.693 688.388 138.051 687.342 140.085C686.297 142.108 684.808 143.687 682.876 144.824C680.956 145.949 678.672 146.511 676.024 146.511ZM676.058 140.886C677.263 140.886 678.268 140.545 679.075 139.864C679.882 139.17 680.49 138.227 680.899 137.034C681.32 135.841 681.53 134.483 681.53 132.96C681.53 131.438 681.32 130.08 680.899 128.886C680.49 127.693 679.882 126.75 679.075 126.057C678.268 125.364 677.263 125.017 676.058 125.017C674.842 125.017 673.82 125.364 672.99 126.057C672.172 126.75 671.553 127.693 671.132 128.886C670.723 130.08 670.518 131.438 670.518 132.96C670.518 134.483 670.723 135.841 671.132 137.034C671.553 138.227 672.172 139.17 672.99 139.864C673.82 140.545 674.842 140.886 676.058 140.886ZM693.632 146V119.818H700.672V124.386H700.945C701.422 122.761 702.223 121.534 703.348 120.705C704.473 119.864 705.768 119.443 707.234 119.443C707.598 119.443 707.99 119.466 708.411 119.511C708.831 119.557 709.2 119.619 709.518 119.699V126.142C709.178 126.04 708.706 125.949 708.104 125.869C707.501 125.79 706.95 125.75 706.45 125.75C705.382 125.75 704.428 125.983 703.587 126.449C702.757 126.903 702.098 127.54 701.609 128.358C701.132 129.176 700.893 130.119 700.893 131.188V146H693.632ZM728.511 119.818V125.273H712.744V119.818H728.511ZM716.324 113.545H723.585V137.955C723.585 138.625 723.688 139.148 723.892 139.523C724.097 139.886 724.381 140.142 724.744 140.29C725.119 140.437 725.551 140.511 726.04 140.511C726.381 140.511 726.722 140.483 727.062 140.426C727.403 140.358 727.665 140.307 727.847 140.273L728.989 145.676C728.625 145.79 728.114 145.92 727.455 146.068C726.795 146.227 725.994 146.324 725.051 146.358C723.301 146.426 721.767 146.193 720.449 145.659C719.142 145.125 718.125 144.295 717.398 143.17C716.67 142.045 716.313 140.625 716.324 138.909V113.545ZM750.031 134.852V119.818H757.293V146H750.321V141.244H750.048C749.457 142.778 748.474 144.011 747.099 144.943C745.736 145.875 744.071 146.341 742.105 146.341C740.355 146.341 738.815 145.943 737.486 145.148C736.156 144.352 735.116 143.222 734.366 141.756C733.628 140.29 733.253 138.534 733.241 136.489V119.818H740.503V135.193C740.514 136.739 740.929 137.96 741.747 138.858C742.565 139.756 743.662 140.205 745.037 140.205C745.912 140.205 746.73 140.006 747.491 139.608C748.253 139.199 748.866 138.597 749.332 137.801C749.81 137.006 750.043 136.023 750.031 134.852ZM770.362 130.864V146H763.101V119.818H770.021V124.438H770.328C770.908 122.915 771.879 121.71 773.243 120.824C774.607 119.926 776.26 119.477 778.203 119.477C780.021 119.477 781.607 119.875 782.959 120.67C784.311 121.466 785.362 122.602 786.112 124.08C786.862 125.545 787.237 127.295 787.237 129.33V146H779.976V130.625C779.987 129.023 779.578 127.773 778.749 126.875C777.919 125.966 776.777 125.511 775.322 125.511C774.345 125.511 773.482 125.722 772.732 126.142C771.993 126.562 771.413 127.176 770.993 127.983C770.584 128.778 770.374 129.739 770.362 130.864ZM792.96 146V119.818H800.222V146H792.96ZM796.608 116.443C795.528 116.443 794.602 116.085 793.83 115.369C793.068 114.642 792.688 113.773 792.688 112.761C792.688 111.761 793.068 110.903 793.83 110.188C794.602 109.46 795.528 109.097 796.608 109.097C797.688 109.097 798.608 109.46 799.369 110.188C800.142 110.903 800.528 111.761 800.528 112.761C800.528 113.773 800.142 114.642 799.369 115.369C798.608 116.085 797.688 116.443 796.608 116.443ZM819.964 119.818V125.273H804.197V119.818H819.964ZM807.777 113.545H815.038V137.955C815.038 138.625 815.141 139.148 815.345 139.523C815.55 139.886 815.834 140.142 816.197 140.29C816.572 140.437 817.004 140.511 817.493 140.511C817.834 140.511 818.175 140.483 818.516 140.426C818.857 140.358 819.118 140.307 819.3 140.273L820.442 145.676C820.078 145.79 819.567 145.92 818.908 146.068C818.249 146.227 817.447 146.324 816.504 146.358C814.754 146.426 813.22 146.193 811.902 145.659C810.595 145.125 809.578 144.295 808.851 143.17C808.124 142.045 807.766 140.625 807.777 138.909V113.545ZM824.695 146V119.818H831.956V146H824.695ZM828.342 116.443C827.263 116.443 826.337 116.085 825.564 115.369C824.803 114.642 824.422 113.773 824.422 112.761C824.422 111.761 824.803 110.903 825.564 110.188C826.337 109.46 827.263 109.097 828.342 109.097C829.422 109.097 830.342 109.46 831.104 110.188C831.876 110.903 832.263 111.761 832.263 112.761C832.263 113.773 831.876 114.642 831.104 115.369C830.342 116.085 829.422 116.443 828.342 116.443ZM849.705 146.511C847.011 146.511 844.693 145.966 842.75 144.875C840.818 143.773 839.33 142.216 838.284 140.205C837.239 138.182 836.716 135.79 836.716 133.028C836.716 130.335 837.239 127.972 838.284 125.938C839.33 123.903 840.801 122.318 842.699 121.182C844.608 120.045 846.847 119.477 849.415 119.477C851.142 119.477 852.75 119.756 854.239 120.312C855.739 120.858 857.045 121.682 858.159 122.784C859.284 123.886 860.159 125.273 860.784 126.943C861.409 128.602 861.722 130.545 861.722 132.773V134.767H839.614V130.267H854.886C854.886 129.222 854.659 128.295 854.205 127.489C853.75 126.682 853.119 126.051 852.312 125.597C851.517 125.131 850.591 124.898 849.534 124.898C848.432 124.898 847.455 125.153 846.602 125.665C845.761 126.165 845.102 126.841 844.625 127.693C844.148 128.534 843.903 129.472 843.892 130.506V134.784C843.892 136.08 844.131 137.199 844.608 138.142C845.097 139.085 845.784 139.812 846.67 140.324C847.557 140.835 848.608 141.091 849.824 141.091C850.631 141.091 851.369 140.977 852.04 140.75C852.71 140.523 853.284 140.182 853.761 139.727C854.239 139.273 854.602 138.716 854.852 138.057L861.568 138.5C861.227 140.114 860.528 141.523 859.472 142.727C858.426 143.92 857.074 144.852 855.415 145.523C853.767 146.182 851.864 146.511 849.705 146.511ZM888.244 127.284L881.597 127.693C881.483 127.125 881.239 126.614 880.864 126.159C880.489 125.693 879.994 125.324 879.381 125.051C878.778 124.767 878.057 124.625 877.216 124.625C876.091 124.625 875.142 124.864 874.369 125.341C873.597 125.807 873.21 126.432 873.21 127.216C873.21 127.841 873.46 128.369 873.96 128.801C874.46 129.233 875.318 129.58 876.534 129.841L881.273 130.795C883.818 131.318 885.716 132.159 886.966 133.318C888.216 134.477 888.841 136 888.841 137.886C888.841 139.602 888.335 141.108 887.324 142.403C886.324 143.699 884.949 144.71 883.199 145.438C881.46 146.153 879.455 146.511 877.182 146.511C873.716 146.511 870.955 145.79 868.898 144.347C866.852 142.892 865.653 140.915 865.301 138.415L872.443 138.04C872.659 139.097 873.182 139.903 874.011 140.46C874.841 141.006 875.903 141.278 877.199 141.278C878.472 141.278 879.494 141.034 880.267 140.545C881.051 140.045 881.449 139.403 881.46 138.619C881.449 137.96 881.17 137.42 880.625 137C880.08 136.568 879.239 136.239 878.102 136.011L873.568 135.108C871.011 134.597 869.108 133.71 867.858 132.449C866.619 131.187 866 129.58 866 127.625C866 125.943 866.455 124.494 867.364 123.278C868.284 122.062 869.574 121.125 871.233 120.466C872.903 119.807 874.858 119.477 877.097 119.477C880.403 119.477 883.006 120.176 884.903 121.574C886.813 122.972 887.926 124.875 888.244 127.284ZM904.523 146V119.818H911.784V146H904.523ZM908.17 116.443C907.091 116.443 906.165 116.085 905.392 115.369C904.631 114.642 904.25 113.773 904.25 112.761C904.25 111.761 904.631 110.903 905.392 110.188C906.165 109.46 907.091 109.097 908.17 109.097C909.25 109.097 910.17 109.46 910.932 110.188C911.705 110.903 912.091 111.761 912.091 112.761C912.091 113.773 911.705 114.642 910.932 115.369C910.17 116.085 909.25 116.443 908.17 116.443ZM924.862 130.864V146H917.601V119.818H924.521V124.438H924.828C925.408 122.915 926.379 121.71 927.743 120.824C929.107 119.926 930.76 119.477 932.703 119.477C934.521 119.477 936.107 119.875 937.459 120.67C938.811 121.466 939.862 122.602 940.612 124.08C941.362 125.545 941.737 127.295 941.737 129.33V146H934.476V130.625C934.487 129.023 934.078 127.773 933.249 126.875C932.419 125.966 931.277 125.511 929.822 125.511C928.845 125.511 927.982 125.722 927.232 126.142C926.493 126.562 925.913 127.176 925.493 127.983C925.084 128.778 924.874 129.739 924.862 130.864ZM581.017 169.091V204H573.636V176.097H573.432L565.438 181.108V174.562L574.08 169.091H581.017ZM603.001 204.767C600.07 204.756 597.547 204.034 595.433 202.602C593.331 201.17 591.712 199.097 590.575 196.381C589.45 193.665 588.893 190.398 588.905 186.58C588.905 182.773 589.467 179.528 590.592 176.847C591.729 174.165 593.348 172.125 595.45 170.727C597.564 169.318 600.081 168.614 603.001 168.614C605.922 168.614 608.433 169.318 610.536 170.727C612.649 172.136 614.274 174.182 615.411 176.864C616.547 179.534 617.109 182.773 617.098 186.58C617.098 190.409 616.53 193.682 615.393 196.398C614.268 199.114 612.655 201.187 610.553 202.619C608.45 204.051 605.933 204.767 603.001 204.767ZM603.001 198.648C605.001 198.648 606.598 197.642 607.791 195.631C608.984 193.619 609.575 190.602 609.564 186.58C609.564 183.932 609.291 181.727 608.746 179.966C608.212 178.205 607.45 176.881 606.462 175.994C605.484 175.108 604.331 174.665 603.001 174.665C601.013 174.665 599.422 175.659 598.229 177.648C597.036 179.636 596.433 182.614 596.422 186.58C596.422 189.261 596.689 191.5 597.223 193.295C597.768 195.08 598.536 196.42 599.524 197.318C600.513 198.205 601.672 198.648 603.001 198.648ZM632.793 198.682V174.545H638.895V198.682H632.793ZM623.776 189.665V183.562H647.912V189.665H623.776ZM697.101 181.312H689.635C689.499 180.347 689.22 179.489 688.8 178.739C688.379 177.977 687.839 177.33 687.18 176.795C686.521 176.261 685.76 175.852 684.896 175.568C684.044 175.284 683.118 175.142 682.118 175.142C680.311 175.142 678.737 175.591 677.396 176.489C676.055 177.375 675.016 178.67 674.277 180.375C673.538 182.068 673.169 184.125 673.169 186.545C673.169 189.034 673.538 191.125 674.277 192.818C675.027 194.511 676.072 195.79 677.413 196.653C678.754 197.517 680.305 197.949 682.067 197.949C683.055 197.949 683.97 197.818 684.811 197.557C685.663 197.295 686.419 196.915 687.078 196.415C687.737 195.903 688.283 195.284 688.714 194.557C689.158 193.83 689.464 193 689.635 192.068L697.101 192.102C696.908 193.705 696.425 195.25 695.652 196.739C694.891 198.216 693.862 199.54 692.567 200.71C691.283 201.869 689.749 202.79 687.964 203.472C686.192 204.142 684.186 204.477 681.947 204.477C678.834 204.477 676.05 203.773 673.595 202.364C671.152 200.955 669.22 198.915 667.8 196.244C666.391 193.574 665.686 190.341 665.686 186.545C665.686 182.739 666.402 179.5 667.834 176.83C669.266 174.159 671.209 172.125 673.663 170.727C676.118 169.318 678.879 168.614 681.947 168.614C683.97 168.614 685.845 168.898 687.572 169.466C689.311 170.034 690.851 170.864 692.192 171.955C693.533 173.034 694.624 174.358 695.464 175.926C696.317 177.494 696.862 179.29 697.101 181.312ZM714.087 204.511C711.439 204.511 709.149 203.949 707.217 202.824C705.297 201.687 703.814 200.108 702.768 198.085C701.723 196.051 701.2 193.693 701.2 191.011C701.2 188.307 701.723 185.943 702.768 183.92C703.814 181.886 705.297 180.307 707.217 179.182C709.149 178.045 711.439 177.477 714.087 177.477C716.734 177.477 719.018 178.045 720.939 179.182C722.871 180.307 724.359 181.886 725.405 183.92C726.45 185.943 726.973 188.307 726.973 191.011C726.973 193.693 726.45 196.051 725.405 198.085C724.359 200.108 722.871 201.687 720.939 202.824C719.018 203.949 716.734 204.511 714.087 204.511ZM714.121 198.886C715.325 198.886 716.331 198.545 717.138 197.864C717.945 197.17 718.553 196.227 718.962 195.034C719.382 193.841 719.592 192.483 719.592 190.96C719.592 189.438 719.382 188.08 718.962 186.886C718.553 185.693 717.945 184.75 717.138 184.057C716.331 183.364 715.325 183.017 714.121 183.017C712.905 183.017 711.882 183.364 711.053 184.057C710.234 184.75 709.615 185.693 709.195 186.886C708.786 188.08 708.581 189.438 708.581 190.96C708.581 192.483 708.786 193.841 709.195 195.034C709.615 196.227 710.234 197.17 711.053 197.864C711.882 198.545 712.905 198.886 714.121 198.886ZM748.484 192.852V177.818H755.746V204H748.774V199.244H748.501C747.911 200.778 746.928 202.011 745.553 202.943C744.189 203.875 742.524 204.341 740.558 204.341C738.808 204.341 737.268 203.943 735.939 203.148C734.609 202.352 733.57 201.222 732.82 199.756C732.081 198.29 731.706 196.534 731.695 194.489V177.818H738.956V193.193C738.967 194.739 739.382 195.96 740.2 196.858C741.018 197.756 742.115 198.205 743.49 198.205C744.365 198.205 745.183 198.006 745.945 197.608C746.706 197.199 747.32 196.597 747.786 195.801C748.263 195.006 748.496 194.023 748.484 192.852ZM768.815 188.864V204H761.554V177.818H768.474V182.438H768.781C769.361 180.915 770.332 179.71 771.696 178.824C773.06 177.926 774.713 177.477 776.656 177.477C778.474 177.477 780.06 177.875 781.412 178.67C782.764 179.466 783.815 180.602 784.565 182.08C785.315 183.545 785.69 185.295 785.69 187.33V204H778.429V188.625C778.44 187.023 778.031 185.773 777.202 184.875C776.372 183.966 775.23 183.511 773.776 183.511C772.798 183.511 771.935 183.722 771.185 184.142C770.446 184.562 769.866 185.176 769.446 185.983C769.037 186.778 768.827 187.739 768.815 188.864ZM805.339 177.818V183.273H789.572V177.818H805.339ZM793.152 171.545H800.413V195.955C800.413 196.625 800.516 197.148 800.72 197.523C800.925 197.886 801.209 198.142 801.572 198.29C801.947 198.437 802.379 198.511 802.868 198.511C803.209 198.511 803.55 198.483 803.891 198.426C804.232 198.358 804.493 198.307 804.675 198.273L805.817 203.676C805.453 203.79 804.942 203.92 804.283 204.068C803.624 204.227 802.822 204.324 801.879 204.358C800.129 204.426 798.595 204.193 797.277 203.659C795.97 203.125 794.953 202.295 794.226 201.17C793.499 200.045 793.141 198.625 793.152 196.909V171.545ZM810.07 204V177.818H817.109V182.386H817.382C817.859 180.761 818.661 179.534 819.786 178.705C820.911 177.864 822.206 177.443 823.672 177.443C824.036 177.443 824.428 177.466 824.848 177.511C825.268 177.557 825.638 177.619 825.956 177.699V184.142C825.615 184.04 825.143 183.949 824.541 183.869C823.939 183.79 823.388 183.75 822.888 183.75C821.82 183.75 820.865 183.983 820.024 184.449C819.195 184.903 818.536 185.54 818.047 186.358C817.57 187.176 817.331 188.119 817.331 189.188V204H810.07ZM829.71 204V177.818H836.972V204H829.71ZM833.358 174.443C832.278 174.443 831.352 174.085 830.58 173.369C829.818 172.642 829.438 171.773 829.438 170.761C829.438 169.761 829.818 168.903 830.58 168.188C831.352 167.46 832.278 167.097 833.358 167.097C834.438 167.097 835.358 167.46 836.119 168.188C836.892 168.903 837.278 169.761 837.278 170.761C837.278 171.773 836.892 172.642 836.119 173.369C835.358 174.085 834.438 174.443 833.358 174.443ZM854.72 204.511C852.027 204.511 849.709 203.966 847.766 202.875C845.834 201.773 844.345 200.216 843.3 198.205C842.254 196.182 841.732 193.79 841.732 191.028C841.732 188.335 842.254 185.972 843.3 183.938C844.345 181.903 845.817 180.318 847.714 179.182C849.624 178.045 851.862 177.477 854.43 177.477C856.158 177.477 857.766 177.756 859.254 178.312C860.754 178.858 862.061 179.682 863.175 180.784C864.3 181.886 865.175 183.273 865.8 184.943C866.425 186.602 866.737 188.545 866.737 190.773V192.767H844.629V188.267H859.902C859.902 187.222 859.675 186.295 859.22 185.489C858.766 184.682 858.135 184.051 857.328 183.597C856.533 183.131 855.607 182.898 854.55 182.898C853.447 182.898 852.47 183.153 851.618 183.665C850.777 184.165 850.118 184.841 849.641 185.693C849.163 186.534 848.919 187.472 848.908 188.506V192.784C848.908 194.08 849.146 195.199 849.624 196.142C850.112 197.085 850.8 197.812 851.686 198.324C852.572 198.835 853.624 199.091 854.839 199.091C855.646 199.091 856.385 198.977 857.055 198.75C857.726 198.523 858.3 198.182 858.777 197.727C859.254 197.273 859.618 196.716 859.868 196.057L866.584 196.5C866.243 198.114 865.544 199.523 864.487 200.727C863.442 201.92 862.089 202.852 860.43 203.523C858.783 204.182 856.879 204.511 854.72 204.511ZM893.26 185.284L886.612 185.693C886.499 185.125 886.254 184.614 885.879 184.159C885.504 183.693 885.01 183.324 884.396 183.051C883.794 182.767 883.072 182.625 882.232 182.625C881.107 182.625 880.158 182.864 879.385 183.341C878.612 183.807 878.226 184.432 878.226 185.216C878.226 185.841 878.476 186.369 878.976 186.801C879.476 187.233 880.334 187.58 881.55 187.841L886.288 188.795C888.834 189.318 890.732 190.159 891.982 191.318C893.232 192.477 893.857 194 893.857 195.886C893.857 197.602 893.351 199.108 892.339 200.403C891.339 201.699 889.964 202.71 888.214 203.438C886.476 204.153 884.47 204.511 882.197 204.511C878.732 204.511 875.97 203.79 873.913 202.347C871.868 200.892 870.669 198.915 870.317 196.415L877.459 196.04C877.675 197.097 878.197 197.903 879.027 198.46C879.857 199.006 880.919 199.278 882.214 199.278C883.487 199.278 884.51 199.034 885.283 198.545C886.067 198.045 886.464 197.403 886.476 196.619C886.464 195.96 886.186 195.42 885.641 195C885.095 194.568 884.254 194.239 883.118 194.011L878.584 193.108C876.027 192.597 874.124 191.71 872.874 190.449C871.635 189.187 871.016 187.58 871.016 185.625C871.016 183.943 871.47 182.494 872.379 181.278C873.3 180.062 874.589 179.125 876.249 178.466C877.919 177.807 879.874 177.477 882.112 177.477C885.419 177.477 888.021 178.176 889.919 179.574C891.828 180.972 892.942 182.875 893.26 185.284Z" fill="white"/>
<path d="M977.75 106C978.745 106 979.698 106.395 980.402 107.098C981.105 107.802 981.5 108.755 981.5 109.75V119L990.1 117.28C998.354 115.635 1006.91 116.42 1014.73 119.54L1015.74 119.945C1023.55 123.067 1032.14 123.652 1040.3 121.615C1041.18 121.394 1042.1 121.377 1042.99 121.566C1043.89 121.756 1044.72 122.145 1045.44 122.706C1046.16 123.267 1046.74 123.985 1047.14 124.804C1047.54 125.624 1047.75 126.523 1047.75 127.435V164.27C1047.75 167.49 1045.56 170.3 1042.43 171.08L1041.36 171.345C1032.51 173.557 1023.19 172.925 1014.73 169.54C1006.91 166.421 998.358 165.636 990.105 167.28L981.5 169V209.75C981.5 210.745 981.105 211.698 980.402 212.402C979.698 213.105 978.745 213.5 977.75 213.5C976.755 213.5 975.802 213.105 975.098 212.402C974.395 211.698 974 210.745 974 209.75V109.75C974 108.755 974.395 107.802 975.098 107.098C975.802 106.395 976.755 106 977.75 106Z" fill="white"/>
<defs>
<linearGradient id="paint0_linear_139_218" x1="0" y1="166" x2="1121" y2="166" gradientUnits="userSpaceOnUse">
<stop stop-color="#3B82F6"/>
<stop offset="1" stop-color="#234C90"/>
</linearGradient>
</defs>
</svg>
