<svg width="90" height="90" viewBox="0 0 90 90" fill="none" xmlns="http://www.w3.org/2000/svg">
<path d="M45 90C38.75 90 32.8967 88.8133 27.44 86.44C21.9833 84.0667 17.2333 80.8583 13.19 76.815C9.14667 72.7717 5.93834 68.0217 3.56501 62.565C1.19167 57.1083 0.00334033 51.2533 6.99301e-06 45C-0.00332634 38.7467 1.18501 32.8933 3.56501 27.44C5.94501 21.9867 9.15167 17.2367 13.185 13.19C17.2183 9.14333 21.9683 5.935 27.435 3.565C32.9017 1.195 38.7567 0.00666667 45 0C51.8333 0 58.3133 1.45833 64.44 4.375C70.5667 7.29167 75.7533 11.4167 80 16.75V10C80 8.58333 80.48 7.39667 81.44 6.44C82.4 5.48333 83.5867 5.00333 85 5C86.4133 4.99667 87.6017 5.47667 88.565 6.44C89.5283 7.40333 90.0067 8.59 90 10V30C90 31.4167 89.52 32.605 88.56 33.565C87.6 34.525 86.4133 35.0033 85 35H65C63.5833 35 62.3967 34.52 61.44 33.56C60.4833 32.6 60.0033 31.4133 60 30C59.9967 28.5867 60.4767 27.4 61.44 26.44C62.4033 25.48 63.59 25 65 25H73.75C70.3333 20.3333 66.125 16.6667 61.125 14C56.125 11.3333 50.75 10 45 10C35.25 10 26.98 13.3967 20.19 20.19C13.4 26.9833 10.0033 35.2533 10 45C9.99667 54.7467 13.3933 63.0183 20.19 69.815C26.9867 76.6117 35.2567 80.0067 45 80C52.9167 80 60 77.625 66.25 72.875C72.5 68.125 76.625 62 78.625 54.5C79.0417 53.1667 79.7917 52.1667 80.875 51.5C81.9583 50.8333 83.1667 50.5833 84.5 50.75C85.9167 50.9167 87.0417 51.52 87.875 52.56C88.7083 53.6 88.9583 54.7467 88.625 56C86.2083 65.9167 80.9583 74.0633 72.875 80.44C64.7917 86.8167 55.5 90.0033 45 90ZM50 43L62.5 55.5C63.4167 56.4167 63.875 57.5833 63.875 59C63.875 60.4167 63.4167 61.5833 62.5 62.5C61.5833 63.4167 60.4167 63.875 59 63.875C57.5833 63.875 56.4167 63.4167 55.5 62.5L41.5 48.5C41 48 40.625 47.4383 40.375 46.815C40.125 46.1917 40 45.545 40 44.875V25C40 23.5833 40.48 22.3967 41.44 21.44C42.4 20.4833 43.5867 20.0033 45 20C46.4133 19.9967 47.6017 20.4767 48.565 21.44C49.5283 22.4033 50.0067 23.59 50 25V43Z" fill="#3B82F6"/>
</svg>
