<svg width="93" height="93" viewBox="0 0 93 93" fill="none" xmlns="http://www.w3.org/2000/svg">
<path fill-rule="evenodd" clip-rule="evenodd" d="M84.1961 30.5946C89.1914 34.1927 92.5833 39.7687 92.5833 46.2917C92.5833 52.8146 89.1914 58.3948 84.1961 61.9887C85.2061 68.0572 83.6322 74.437 79.0325 79.0325C74.4244 83.6406 68.0487 85.1724 62.0056 84.1877C58.4243 89.1998 52.7977 92.5833 46.2917 92.5833C39.7687 92.5833 34.1801 89.1872 30.5904 84.1835C24.5388 85.1724 18.159 83.6448 13.5466 79.0325C8.9385 74.4244 7.40667 68.0445 8.42508 61.9887C3.434 58.399 0 52.8188 0 46.2917C0 39.7645 3.434 34.1801 8.42508 30.5946C7.40667 24.5388 8.9385 18.159 13.5508 13.5508C18.1505 8.94692 24.5346 7.37721 30.624 8.38721C34.1927 3.3835 39.7814 0 46.2917 0C52.7935 0 58.4117 3.37929 61.9972 8.38721C68.0656 7.37721 74.437 8.95533 79.0325 13.5508C83.628 18.1463 85.2103 24.5262 84.1961 30.5946ZM65.57 30.2411C66.0199 30.5621 66.4022 30.9687 66.6949 31.4375C66.9877 31.9063 67.1852 32.4281 67.2763 32.9733C67.3673 33.5184 67.3501 34.0762 67.2256 34.6147C67.1011 35.1532 66.8717 35.6619 66.5506 36.1117L45.5089 65.57C45.1537 66.0675 44.6944 66.4817 44.1629 66.7837C43.6314 67.0856 43.0406 67.2682 42.4314 67.3187C41.8222 67.3691 41.2093 67.2863 40.6354 67.0759C40.0615 66.8655 39.5403 66.5326 39.108 66.1003L26.483 53.4753C25.7165 52.6816 25.2923 51.6186 25.3019 50.5151C25.3115 49.4117 25.754 48.3562 26.5343 47.576C27.3146 46.7957 28.3701 46.3531 29.4735 46.3435C30.5769 46.3339 31.6399 46.7581 32.4336 47.5247L41.5447 56.6357L59.6994 31.2174C60.3485 30.3095 61.3316 29.6966 62.4325 29.5135C63.5335 29.3304 64.6621 29.5921 65.57 30.2411Z" fill="#3B82F6"/>
</svg>
