<svg width="90" height="90" viewBox="0 0 90 90" fill="none" xmlns="http://www.w3.org/2000/svg">
<path fill-rule="evenodd" clip-rule="evenodd" d="M0 3.75C0 2.75544 0.395089 1.80161 1.09835 1.09835C1.80161 0.395089 2.75544 0 3.75 0H33.75V7.5H7.5V48.75H30C30.9946 48.75 31.9484 49.1451 32.6516 49.8483C33.3549 50.5516 33.75 51.5054 33.75 52.5C33.75 55.4837 34.9353 58.3452 37.045 60.455C39.1548 62.5647 42.0163 63.75 45 63.75C47.9837 63.75 50.8452 62.5647 52.955 60.455C55.0647 58.3452 56.25 55.4837 56.25 52.5C56.25 51.5054 56.6451 50.5516 57.3483 49.8483C58.0516 49.1451 59.0054 48.75 60 48.75H82.5V7.5H56.25V0H86.25C87.2446 0 88.1984 0.395089 88.9017 1.09835C89.6049 1.80161 90 2.75544 90 3.75V86.25C90 87.2446 89.6049 88.1984 88.9017 88.9017C88.1984 89.6049 87.2446 90 86.25 90H3.75C2.75544 90 1.80161 89.6049 1.09835 88.9017C0.395089 88.1984 0 87.2446 0 86.25V3.75ZM41.25 32.1975V0H48.75V32.1975L57.345 23.595L62.655 28.905L47.655 43.905C47.3067 44.2542 46.8928 44.5313 46.4372 44.7203C45.9817 44.9094 45.4933 45.0067 45 45.0067C44.5067 45.0067 44.0183 44.9094 43.5627 44.7203C43.1072 44.5313 42.6933 44.2542 42.345 43.905L27.345 28.905L32.655 23.595L41.25 32.1975Z" fill="#3B82F6"/>
</svg>
