<svg width="120" height="98" viewBox="0 0 120 98" fill="none" xmlns="http://www.w3.org/2000/svg">
<path fill-rule="evenodd" clip-rule="evenodd" d="M0 23.3961V34.1061C0.000657977 34.746 0.165039 35.3751 0.477502 35.9335C0.789966 36.4919 1.24012 36.961 1.78512 37.2963C2.33013 37.6316 2.95187 37.8218 3.59117 37.8489C4.23047 37.876 4.86607 37.7391 5.4375 37.4511L12.0825 34.1061L14.91 32.6811L15 32.6361L25.53 27.3261L26.055 27.0561L31.02 24.5586L35.5425 22.2786C36.1626 21.9661 36.6837 21.4876 37.0479 20.8963C37.412 20.305 37.6048 19.6243 37.6048 18.9299C37.6048 18.2355 37.412 17.5547 37.0479 16.9635C36.6837 16.3722 36.1626 15.8937 35.5425 15.5811L31.02 13.2936L26.055 10.7961L25.53 10.5261L15 5.21614L14.91 5.17864L12.0825 3.75364L5.4375 0.401144C4.86607 0.1132 4.23047 -0.0237362 3.59117 0.00336565C2.95187 0.0304675 2.33013 0.220706 1.78512 0.555979C1.24012 0.891253 0.789966 1.36041 0.477502 1.91881C0.165039 2.4772 0.000657977 3.10627 0 3.74614L0 23.3961ZM54.375 7.42114C52.8832 7.42114 51.4524 8.01377 50.3975 9.06867C49.3426 10.1236 48.75 11.5543 48.75 13.0461C48.75 14.538 49.3426 15.9687 50.3975 17.0236C51.4524 18.0785 52.8832 18.6711 54.375 18.6711H106.875C107.372 18.6711 107.849 18.8687 108.201 19.2203C108.552 19.572 108.75 20.0489 108.75 20.5461V84.2961C108.75 84.7934 108.552 85.2703 108.201 85.622C107.849 85.9736 107.372 86.1711 106.875 86.1711H35.625C35.1277 86.1711 34.6508 85.9736 34.2992 85.622C33.9475 85.2703 33.75 84.7934 33.75 84.2961V43.0761C33.75 41.5843 33.1574 40.1536 32.1025 39.0987C31.0476 38.0438 29.6168 37.4511 28.125 37.4511C26.6332 37.4511 25.2024 38.0438 24.1475 39.0987C23.0926 40.1536 22.5 41.5843 22.5 43.0761V84.2961C22.5 91.5411 28.38 97.4211 35.625 97.4211H106.875C110.356 97.4211 113.694 96.0383 116.156 93.5769C118.617 91.1155 120 87.7771 120 84.2961V20.5461C120 17.0652 118.617 13.7268 116.156 11.2654C113.694 8.80395 110.356 7.42114 106.875 7.42114H54.375ZM50.625 37.4211C49.1332 37.4211 47.7024 38.0138 46.6475 39.0687C45.5926 40.1236 45 41.5543 45 43.0461C45 44.538 45.5926 45.9687 46.6475 47.0236C47.7024 48.0785 49.1332 48.6711 50.625 48.6711H91.875C93.3668 48.6711 94.7976 48.0785 95.8525 47.0236C96.9074 45.9687 97.5 44.538 97.5 43.0461C97.5 41.5543 96.9074 40.1236 95.8525 39.0687C94.7976 38.0138 93.3668 37.4211 91.875 37.4211H50.625ZM45 61.7961C45 60.3043 45.5926 58.8736 46.6475 57.8187C47.7024 56.7638 49.1332 56.1711 50.625 56.1711H76.875C78.3668 56.1711 79.7976 56.7638 80.8525 57.8187C81.9074 58.8736 82.5 60.3043 82.5 61.7961C82.5 63.288 81.9074 64.7187 80.8525 65.7736C79.7976 66.8285 78.3668 67.4211 76.875 67.4211H50.625C49.1332 67.4211 47.7024 66.8285 46.6475 65.7736C45.5926 64.7187 45 63.288 45 61.7961Z" fill="#3B82F6"/>
</svg>
